<?xml version="1.0" standalone="no"?>
<!DOCTYPE svg PUBLIC "-//W3C//DTD SVG 20010904//EN"
 "http://www.w3.org/TR/2001/REC-SVG-20010904/DTD/svg10.dtd">
<svg version="1.0" xmlns="http://www.w3.org/2000/svg"
 width="512.000000pt" height="512.000000pt" viewBox="0 0 512.000000 512.000000"
 preserveAspectRatio="xMidYMid meet">
<metadata>
Created by potrace 1.16, written by Peter Selinger 2001-2019
</metadata>
<g transform="translate(0.000000,512.000000) scale(0.100000,-0.100000)"
fill="#000000" stroke="none">
<path d="M1 3948 c1 -1014 3 -1160 14 -1077 44 323 128 592 272 869 121 235
270 438 463 630 408 409 910 654 1499 735 83 11 -63 13 -1076 14 l-1173 1 1
-1172z"/>
<path d="M2881 5105 c491 -67 923 -250 1299 -551 109 -88 296 -275 384 -384
271 -340 457 -749 531 -1170 l23 -135 1 1128 1 1127 -1167 -1 c-1010 -1 -1155
-3 -1072 -14z"/>
<path d="M857 3520 c-91 -16 -179 -87 -219 -178 -19 -42 -20 -68 -19 -516 2
-469 2 -471 25 -521 31 -69 65 -106 128 -140 l53 -30 358 -3 357 -3 0 76 c0
62 4 79 20 95 48 48 80 11 80 -93 l0 -77 195 0 195 0 0 78 c0 64 4 82 18 95
24 22 38 21 62 -3 16 -16 20 -33 20 -95 l0 -75 195 0 195 0 0 85 c0 75 2 86
21 95 16 9 26 8 44 -4 22 -14 24 -24 27 -98 l3 -83 193 -3 192 -2 0 69 c0 38
4 81 9 94 12 30 43 39 70 20 18 -12 21 -25 21 -99 l0 -84 195 0 195 0 0 84 c0
76 2 86 22 100 29 20 34 20 58 -4 17 -17 20 -33 20 -101 l0 -81 343 5 c223 2
355 8 378 15 86 28 167 114 194 205 22 75 22 900 0 975 -20 68 -96 151 -167
183 l-53 24 -1690 1 c-929 1 -1711 -2 -1738 -6z"/>
<path d="M1 1168 l-1 -1168 1128 1 c682 1 1105 5 1072 10 -474 75 -888 256
-1250 545 -109 88 -296 275 -384 384 -301 376 -484 808 -551 1299 -11 83 -13
-62 -14 -1071z"/>
<path d="M5106 2179 c-8 -84 -52 -274 -88 -389 -98 -308 -253 -598 -454 -850
-87 -109 -275 -297 -384 -384 -349 -278 -788 -474 -1217 -540 -77 -12 48 -14
1035 -15 l1122 -1 0 1120 c0 616 -2 1120 -4 1120 -2 0 -6 -28 -10 -61z"/>
</g>
</svg>
