<?xml version="1.0" encoding="iso-8859-1"?>
<!-- Generator: Adobe Illustrator 19.0.0, SVG Export Plug-In . SVG Version: 6.00 Build 0)  -->
<svg version="1.1" id="Layer_1" xmlns="http://www.w3.org/2000/svg" xmlns:xlink="http://www.w3.org/1999/xlink" x="0px" y="0px"
	 viewBox="0 0 504 504" style="enable-background:new 0 0 504 504;" xml:space="preserve">
<circle style="fill:#FFD05B;" cx="252" cy="252" r="252"/>
<path style="fill:#FFFFFF;" d="M435.4,293.1H68.6c-1.1,0-1.9-0.9-1.9-1.9V171.5c0-1.1,0.9-1.9,1.9-1.9h366.8c1.1,0,1.9,0.9,1.9,1.9
	v119.7C437.3,292.3,436.5,293.1,435.4,293.1z"/>
<g>
	<path style="fill:#E6E9EE;" d="M66.7,259.3v26.2c0,4.2,3.4,7.6,7.6,7.6h355.5c4.2,0,7.6-3.4,7.6-7.6v-26.2H66.7z"/>
	<path style="fill:#E6E9EE;" d="M74,169.6c49.4,7.1,111.1,11.3,178,11.3c67,0,128.7-4.2,178-11.3H74z"/>
</g>
<polygon style="fill:#ACB3BA;" points="116.6,270.2 109,292.7 395,292.7 387.4,270.2 "/>
<g>
	<path style="fill:#FFFFFF;" d="M353.6,315.2c0,0,1.2,0.3,3.3,1.1c2.1,0.8,5.2,2.1,8.7,4.4c1.8,1.2,3.7,2.6,5.4,4.5
		c1.7,1.8,3.4,4.2,4,6.6c0.7,2.4,0.7,5.1,0.2,7c-0.5,2.2-1.4,4-2.3,5.9c-1.9,3.7-4.1,6.8-4.7,10.1c-0.3,1.7-0.3,3.3,0.1,5
		c0.5,1.7,1.2,3.6,2.1,5.3c2,3.5,4.3,6.7,6,8.9c1.7,2.3,2.8,3.6,2.8,3.6s-0.4-0.2-1-0.7c-0.7-0.5-1.7-1-2.9-2
		c-2.4-1.8-5.8-4.4-9.2-8.3c-1.6-1.9-3.3-4.2-4.4-6.8c-1.1-2.5-1.8-5.3-1.6-7.8c0.2-5,2.6-8.7,4.4-12.1c0.9-1.6,1.7-3.2,2.3-4.7
		c0.6-1.7,0.9-2.8,0.7-4.3c-0.2-1.4-0.7-2.8-1.6-4.2c-0.9-1.4-2-2.7-3.2-3.9c-2.4-2.4-4.8-4.3-6.5-5.6
		C354.6,316,353.6,315.2,353.6,315.2z"/>
	<path style="fill:#FFFFFF;" d="M313.1,315.2c0,0,1.2,0.3,3.2,1.1c2,0.8,4.9,2.1,8,4.4c1.6,1.2,3.3,2.6,4.7,4.5
		c1.5,1.8,2.7,4.2,3,6.6c0.4,2.4-0.1,5.1-0.9,7c-0.8,2.2-2,4-3.2,5.9c-2.5,3.7-5.1,6.8-6.2,10.1c-0.5,1.7-0.8,3.3-0.6,5
		c0.2,1.7,0.7,3.6,1.3,5.3c1.4,3.5,3.3,6.7,4.6,8.9c1.4,2.3,2.2,3.6,2.2,3.6s-0.3-0.2-0.9-0.7s-1.6-1-2.6-2
		c-2.1-1.8-5.2-4.4-7.9-8.3c-1.3-1.9-2.6-4.2-3.3-6.8c-0.7-2.5-1-5.3-0.4-7.8c1-5,3.9-8.7,6.2-12.1c1.2-1.6,2.2-3.2,3-4.7
		c0.8-1.7,1.3-2.8,1.4-4.3c0-1.4-0.3-2.8-1-4.2c-0.7-1.4-1.6-2.7-2.6-3.9c-2-2.4-4.2-4.3-5.7-5.6C314,316,313.1,315.2,313.1,315.2z"
		/>
	<path style="fill:#FFFFFF;" d="M272.7,315.2c0,0,1.1,0.3,3,1.1c1.9,0.8,4.6,2.1,7.4,4.4c1.4,1.2,2.9,2.6,4,4.5
		c1.2,1.8,2.1,4.2,2,6.6c0,2.4-0.9,5.1-1.9,7c-1.2,2.2-2.6,4-4,5.9c-3,3.7-6.1,6.8-7.7,10.1c-0.8,1.7-1.3,3.3-1.4,5s0.1,3.6,0.5,5.3
		c0.9,3.5,2.3,6.7,3.3,8.9c1.1,2.3,1.7,3.6,1.7,3.6s-0.3-0.2-0.8-0.7s-1.4-1-2.3-2c-1.9-1.8-4.5-4.4-6.6-8.3c-1-1.9-2-4.2-2.3-6.8
		c-0.4-2.5-0.2-5.3,0.8-7.8c1.8-5,5.2-8.7,8-12.1c1.4-1.6,2.7-3.2,3.7-4.7c1.1-1.7,1.7-2.8,2-4.3c0.2-1.4,0.2-2.8-0.3-4.2
		c-0.5-1.4-1.2-2.7-2-3.9c-1.7-2.4-3.5-4.3-4.8-5.6C273.4,316,272.7,315.2,272.7,315.2z"/>
	<path style="fill:#FFFFFF;" d="M232.2,315.2c0,0,1.1,0.3,2.8,1.1c1.7,0.8,4.2,2.1,6.7,4.4c1.2,1.2,2.5,2.6,3.3,4.5
		c0.9,1.8,1.4,4.2,1,6.6s-1.6,5.1-3,7c-1.5,2.2-3.2,4-4.9,5.9c-3.6,3.7-7.2,6.8-9.2,10.1c-1,1.7-1.8,3.3-2.1,5s-0.4,3.6-0.3,5.3
		c0.3,3.5,1.2,6.7,1.9,8.9c0.7,2.3,1.1,3.6,1.1,3.6s-0.3-0.2-0.7-0.7c-0.5-0.5-1.2-1-2-2c-1.6-1.8-3.8-4.4-5.4-8.3
		c-0.7-1.9-1.3-4.2-1.3-6.8c0-2.5,0.7-5.3,2-7.8c2.5-5,6.6-8.7,9.8-12.1c1.7-1.6,3.2-3.2,4.4-4.7c1.4-1.7,2.2-2.8,2.7-4.3
		c0.5-1.4,0.6-2.8,0.3-4.2c-0.3-1.4-0.8-2.7-1.4-3.9c-1.3-2.4-2.9-4.3-4-5.6C232.8,316,232.2,315.2,232.2,315.2z"/>
	<path style="fill:#FFFFFF;" d="M191.7,315.2c0,0,1,0.3,2.7,1.1c1.6,0.8,3.9,2.1,6,4.4c1.1,1.2,2.1,2.6,2.6,4.5
		c0.6,1.8,0.8,4.2,0,6.6c-0.7,2.4-2.4,5.1-4.1,7c-1.8,2.2-3.8,4-5.8,5.9c-4.1,3.7-8.2,6.8-10.8,10.1c-1.3,1.7-2.3,3.3-2.9,5
		c-0.6,1.7-1,3.6-1.1,5.3c-0.2,3.5,0.2,6.7,0.6,8.9c0.4,2.3,0.6,3.6,0.6,3.6s-0.2-0.2-0.6-0.7c-0.4-0.5-1.1-1-1.7-2
		c-1.4-1.8-3.2-4.4-4.1-8.3c-0.5-1.9-0.7-4.2-0.2-6.8c0.4-2.5,1.5-5.3,3.2-7.8c3.3-5,7.9-8.7,11.7-12.1c1.9-1.6,3.7-3.2,5.1-4.7
		c1.6-1.7,2.6-2.8,3.3-4.3c0.7-1.4,1-2.8,0.9-4.2c-0.1-1.4-0.4-2.7-0.8-3.9c-1-2.4-2.2-4.3-3.1-5.6
		C192.2,316,191.7,315.2,191.7,315.2z"/>
	<path style="fill:#FFFFFF;" d="M151.2,315.2c0,0,1,0.3,2.5,1.1c1.5,0.8,3.6,2.1,5.4,4.4c0.9,1.2,1.7,2.6,2,4.5
		c0.3,1.8,0.2,4.2-1,6.6c-1.1,2.4-3.2,5.1-5.1,7c-2.1,2.2-4.4,4-6.7,5.9c-4.7,3.7-9.2,6.8-12.3,10.1c-1.5,1.7-2.8,3.3-3.7,5
		s-1.5,3.6-1.9,5.3c-0.7,3.5-0.8,6.7-0.8,8.9c0,2.3,0,3.6,0,3.6s-0.2-0.2-0.5-0.7s-0.9-1-1.4-2c-1.1-1.8-2.5-4.4-2.9-8.3
		c-0.2-1.9-0.1-4.2,0.8-6.8c0.8-2.5,2.3-5.3,4.4-7.8c4-5,9.2-8.7,13.5-12.1c2.1-1.6,4.2-3.2,5.9-4.7c1.9-1.7,3-2.8,4-4.3
		c0.9-1.4,1.4-2.8,1.6-4.2c0.1-1.4,0-2.7-0.2-3.9c-0.6-2.4-1.6-4.3-2.3-5.6C151.6,316,151.2,315.2,151.2,315.2z"/>
</g>
<circle style="fill:#FF7058;" cx="387.9" cy="246.2" r="8.7"/>
<circle style="fill:#4CDBC4;" cx="362" cy="246.2" r="8.7"/>
<g>
	<rect x="94.5" y="193.3" style="fill:#E6E9EE;" width="315" height="6"/>
	<rect x="94.5" y="208.8" style="fill:#E6E9EE;" width="315" height="6"/>
	<rect x="94.5" y="224.4" style="fill:#E6E9EE;" width="315" height="6"/>
</g>
<g>
</g>
<g>
</g>
<g>
</g>
<g>
</g>
<g>
</g>
<g>
</g>
<g>
</g>
<g>
</g>
<g>
</g>
<g>
</g>
<g>
</g>
<g>
</g>
<g>
</g>
<g>
</g>
<g>
</g>
</svg>
